<?xml version="1.0" standalone="no"?>
<!DOCTYPE svg PUBLIC "-//W3C//DTD SVG 20010904//EN"
 "http://www.w3.org/TR/2001/REC-SVG-20010904/DTD/svg10.dtd">
<svg version="1.0" xmlns="http://www.w3.org/2000/svg"
 width="850.000000pt" height="850.000000pt" viewBox="0 0 850.000000 850.000000"
 preserveAspectRatio="xMidYMid meet">
<metadata>
Created by potrace 1.11, written by Peter Selinger 2001-2013
</metadata>
<g transform="translate(0.000000,850.000000) scale(0.100000,-0.100000)"
fill="#000000" stroke="none">
<path d="M0 8485 c0 -13 479 -15 4250 -15 3771 0 4250 2 4250 15 0 13 -479 15
-4250 15 -3771 0 -4250 -2 -4250 -15z"/>
<path d="M280 4225 l0 -3965 3970 0 3970 0 0 3965 0 3965 -3970 0 -3970 0 0
-3965z m2237 1654 c41 -15 73 -37 110 -74 80 -82 83 -98 83 -482 l0 -323 -285
0 -285 0 0 145 0 145 -285 0 -285 0 0 -885 0 -885 285 0 285 0 0 295 0 295
-145 0 -145 0 0 300 0 300 430 0 430 0 -2 -787 -3 -788 -27 -50 c-32 -60 -77
-105 -138 -137 l-45 -23 -618 -3 c-404 -2 -632 1 -657 8 -90 24 -185 120 -212
213 -9 32 -12 343 -12 1277 l-1 1235 23 49 c45 100 109 158 200 182 35 9 196
13 644 13 585 1 598 1 655 -20z m1516 -396 c102 -230 199 -447 215 -482 l28
-65 83 185 c45 101 142 317 215 479 l132 295 323 3 c177 1 321 -1 319 -6 -13
-30 -732 -1459 -738 -1467 -5 -6 158 -341 360 -745 203 -404 369 -741 370
-747 0 -10 -69 -13 -315 -13 l-315 0 -18 38 c-11 20 -106 233 -212 472 -106
239 -196 438 -200 443 -3 4 -77 -154 -164 -350 -87 -197 -183 -413 -214 -480
l-55 -123 -318 0 c-176 0 -319 3 -319 7 0 4 167 339 371 745 l370 739 -370
735 c-204 405 -371 740 -371 745 0 5 133 9 318 9 l319 0 186 -417z m3359 384
c63 -31 106 -78 141 -154 l22 -48 0 -1255 0 -1255 -26 -55 c-31 -64 -85 -122
-143 -153 -41 -22 -43 -22 -793 -25 l-753 -2 0 1490 0 1491 748 -3 747 -3 57
-28z"/>
<path d="M6420 4405 l0 -885 280 0 280 0 0 885 0 885 -280 0 -280 0 0 -885z"/>
</g>
</svg>
